Coordinates
version=1
nRows=12
nColumns=24
inDegrees=yes

Units are S.I. units (second, meters, Newtons, ...)
Angles are in degrees.

endheader
time	pelvis_tilt	pelvis_list	pelvis_rotation	pelvis_tx	pelvis_ty	pelvis_tz	hip_flexion_r	hip_adduction_r	hip_rotation_r	knee_angle_r	ankle_angle_r	subtalar_angle_r	mtp_angle_r	hip_flexion_l	hip_adduction_l	hip_rotation_l	knee_angle_l	ankle_angle_l	subtalar_angle_l	mtp_angle_l	lumbar_extension	lumbar_bending	lumbar_rotation
      3.06500000	    -10.78232302	     13.32267118	     -1.67865731	     -1.63902270	     -0.03925310	      0.68013482	     25.92959253	    -17.73615466	      0.41347306	    -71.47844168	    -23.41504015	     -9.94211976	     43.24695164	     27.34076459	     15.42694737	      0.34333768	    -28.79868865	     13.58553984	     -4.30062003	    -22.61505485	      8.60181788	    -15.60104157	      0.17252400
      3.07000000	    -10.69694696	     13.21654805	     -1.51292516	     -1.63183608	     -0.03750136	      0.67977544	     26.70572034	    -17.62769015	      0.35366509	    -71.97625208	    -23.05895314	    -10.15906577	     43.29350828	     26.33328671	     15.48073270	      0.75008946	    -28.07897917	     13.68887376	     -4.33580919	    -22.62180892	      8.57451450	    -15.50248796	     -0.14616175
      3.07500000	    -10.59103020	     13.09977862	     -1.35032594	     -1.62467771	     -0.03574712	      0.67938013	     27.43563744	    -17.50002655	      0.31175075	    -72.39163300	    -22.66749037	    -10.18727075	     43.38946118	     25.29466854	     15.52863681	      1.19749387	    -27.33969725	     13.75338512	     -4.42627598	    -22.64018944	      8.51689210	    -15.38586485	     -0.47090533
      3.08000000	    -10.48985034	     12.97083677	     -1.18319165	     -1.61755514	     -0.03402955	      0.67897862	     28.14967835	    -17.35412114	      0.25957064	    -72.72929081	    -22.31171693	    -10.20776376	     43.49362702	     24.26122397	     15.55779156	      1.65381891	    -26.59762312	     13.79859009	     -4.51584260	    -22.64727769	      8.45634041	    -15.25439198	     -0.80664674
      3.08500000	    -10.39944308	     12.82035223	     -1.01151798	     -1.61046220	     -0.03235060	      0.67858218	     28.85159710	    -17.18046056	      0.18836141	    -72.98837073	    -21.99823410	    -10.25517270	     43.57752470	     23.24071734	     15.55692559	      2.11681241	    -25.85424882	     13.82051167	     -4.62326932	    -22.64530049	      8.40077937	    -15.10028356	     -1.14667478
      3.09000000	    -10.30662372	     12.65361504	     -0.83273314	     -1.60341281	     -0.03071144	      0.67813973	     29.52894971	    -16.99676312	      0.09023029	    -73.17329537	    -21.70954409	    -10.33718263	     43.62346025	     22.22266476	     15.53912700	      2.60058442	    -25.11268921	     13.81546263	     -4.77124743	    -22.65025469	      8.33330787	    -14.91777692	     -1.50957012
      3.09500000	    -10.21946903	     12.46684409	     -0.65193347	     -1.59638935	     -0.02913004	      0.67769466	     30.19013779	    -16.79299727	     -0.03013077	    -73.28831542	    -21.44127748	    -10.46550703	     43.61064430	     21.21832755	     15.49263937	      3.08662261	    -24.37639727	     13.79803614	     -4.96127004	    -22.68293199	      8.26579890	    -14.71571053	     -1.87733455
      3.10000000	    -10.13016683	     12.26382646	     -0.46303484	     -1.58941007	     -0.02760280	      0.67723473	     30.82726885	    -16.57813252	     -0.17790569	    -73.33562376	    -21.18424680	    -10.64705902	     43.51899229	     20.22203827	     15.42695122	      3.59026923	    -23.64944186	     13.76816040	     -5.20502679	    -22.77017649	      8.18590870	    -14.49289607	     -2.26422193
      3.10500000	    -10.04674997	     12.04110764	     -0.27828206	     -1.58245632	     -0.02614593	      0.67676537	     31.45250229	    -16.34618441	     -0.34568443	    -73.31836142	    -20.93527745	    -10.87957702	     43.34024066	     19.24528781	     15.33378942	      4.10533582	    -22.93818526	     13.73901636	     -5.49172276	    -22.92332322	      8.10994840	    -14.24208628	     -2.64389397
      3.11000000	     -9.96059445	     11.80214729	     -0.08895482	     -1.57554236	     -0.02476355	      0.67627419	     32.05566087	    -16.10705022	     -0.54097217	    -73.24112934	    -20.68755657	    -11.16942908	     43.05355464	     18.28048274	     15.22360938	      4.65587664	    -22.24932299	     13.71463041	     -5.82370903	    -23.15302265	      8.02264314	    -13.96924575	     -3.03381971
      3.11500000	     -9.83640652	     11.57900385	      0.13033387	     -1.56872986	     -0.02348574	      0.67572926	     32.60437700	    -15.91840304	     -0.79103260	    -73.13055690	    -20.38445948	    -11.55808173	     42.53846925	     17.29968909	     15.14279455	      5.27757060	    -21.60703222	     13.74489252	     -6.18797922	    -23.55291922	      7.86439649	    -13.71779817	     -3.49900932
      3.12000000	     -9.71631394	     11.33469634	      0.26766963	     -1.56183070	     -0.02226027	      0.67530379	     33.15733298	    -15.65744112	     -0.98022610	    -72.98447945	    -19.96282536	    -11.75746512	     41.31220838	     16.33815038	     15.00286669	      5.83370708	    -20.99957055	     14.11179381	     -6.42931111	    -24.91992302	      7.75012154	    -13.42409327	     -3.80825969
